<svg xmlns="http://www.w3.org/2000/svg" width="16" height="16" viewBox="0 0 16 16">
  <!-- Puntu status: engine off. Hollow keycap outline with a diagonal slash inside
       (like action-unavailable-symbolic). Single even-odd path: outer contour →
       inner hole → slash re-filled at depth 3. No masks — see puntu-symbolic.svg. -->
  <path fill="#2e3436" fill-rule="evenodd"
        d="M4.6 2.5h6.8A2.6 2.6 0 0 1 14 5.1v5.8a2.6 2.6 0 0 1-2.6 2.6H4.6A2.6 2.6 0 0 1 2 10.9V5.1a2.6 2.6 0 0 1 2.6-2.6Z
           M5.1 4.1h5.8a1.5 1.5 0 0 1 1.5 1.5v4.8a1.5 1.5 0 0 1-1.5 1.5H5.1a1.5 1.5 0 0 1-1.5-1.5V5.6a1.5 1.5 0 0 1 1.5-1.5Z
           M9.98 4.3l1.24 1-5.2 6.4-1.24-1Z"/>
</svg>
